# xmcd CD database file
#
# Track frame offsets:
#	150
#	26488
#	44494
#	65899
#	90280
#	114587
#	133718
#	154590
#	180229
#	205645
#
# Disc length: 2932 seconds
#
# Revision: 0
# Processed by: cddbd v1.5.2PL0 Copyright (c) Steve Scherf et al.
# Submitted via: CDex 1.51
#
DISCID=7c0b720a
DTITLE=2002 - Christmas Dreams
DYEAR=2007
DGENRE=New Age
TTITLE0=Hark! The Herald Angels Sing
TTITLE1=In The Bleak Midwinter
TTITLE2=Carol Of The Bells
TTITLE3=The First Noel
TTITLE4=O Little Town Of Bethlehem
TTITLE5=It Came Upon A Midnight Clear
TTITLE6=What Child Is This
TTITLE7=Away In A Manger
TTITLE8=Silent Night
TTITLE9=O Come All Ye Faithful
EXTD=YEAR: 2007
EXTT0=
EXTT1=
EXTT2=
EXTT3=
EXTT4=
EXTT5=
EXTT6=
EXTT7=
EXTT8=
EXTT9=
PLAYORDER=
